<svg width="21" height="21" viewBox="0 0 21 21" fill="none" xmlns="http://www.w3.org/2000/svg">
<path d="M20.2144 18.2898L18.8474 14.1878H17.3474L18.1804 18.1878H3.51445L4.34745 14.1878H2.84745L1.47945 18.2898C1.13245 19.3338 1.74745 20.1878 2.84745 20.1878H18.8474C19.9474 20.1878 20.5624 19.3338 20.2144 18.2898ZM15.8474 5.18782C15.8474 3.86174 15.3207 2.58997 14.383 1.65229C13.4453 0.714608 12.1735 0.187824 10.8474 0.187824C9.52137 0.187824 8.24959 0.714608 7.31191 1.65229C6.37423 2.58997 5.84745 3.86174 5.84745 5.18782C5.84745 9.96282 10.8474 15.1878 10.8474 15.1878C10.8474 15.1878 15.8474 9.96282 15.8474 5.18782ZM8.14745 5.24782C8.14771 4.53191 8.43229 3.84541 8.93861 3.33928C9.44493 2.83315 10.1315 2.54882 10.8474 2.54882C11.5634 2.54882 12.25 2.83324 12.7563 3.33949C13.2625 3.84574 13.5469 4.53237 13.5469 5.24832C13.5469 5.96428 13.2625 6.6509 12.7563 7.15716C12.25 7.66341 11.5634 7.94782 10.8474 7.94782C10.1314 7.94782 9.44461 7.66336 8.93826 7.15701C8.43191 6.65066 8.14745 5.96391 8.14745 5.24782Z" fill="url(#paint0_linear_156_189)"/>
<defs>
<linearGradient id="paint0_linear_156_189" x1="20.3118" y1="10.1878" x2="1.38257" y2="10.1878" gradientUnits="userSpaceOnUse">
<stop offset="0.35" stop-color="#5C4033"/>
<stop offset="1" stop-color="#C1A671"/>
</linearGradient>
</defs>
</svg>
