<svg width="86" height="58" viewBox="0 0 86 58" fill="none" xmlns="http://www.w3.org/2000/svg">
<path d="M69.3375 21.9767C66.9008 9.61421 56.0433 0.333374 43 0.333374C32.6442 0.333374 23.65 6.21004 19.1708 14.81C8.385 15.9567 0 25.0942 0 36.1667C0 48.0275 9.63917 57.6667 21.5 57.6667H68.0833C77.9733 57.6667 86 49.64 86 39.75C86 30.29 78.6542 22.6217 69.3375 21.9767ZM68.0833 50.5H21.5C13.5808 50.5 7.16667 44.0859 7.16667 36.1667C7.16667 28.8209 12.6492 22.6934 19.9233 21.9409L23.7575 21.5467L25.5492 18.1425C28.9533 11.585 35.6183 7.50004 43 7.50004C52.3883 7.50004 60.4867 14.165 62.3142 23.3742L63.3892 28.7492L68.8717 29.1434C74.4617 29.5017 78.8333 34.1959 78.8333 39.75C78.8333 45.6625 73.9958 50.5 68.0833 50.5ZM28.6667 32.5834H37.8042V43.3334H48.1958V32.5834H57.3333L43 18.25L28.6667 32.5834Z" fill="#3BA300"/>
</svg>
